<svg viewbox="0 0 139.4 272" width="1394px">
    <path style="opacity:1;fill:#fff;fill-opacity:1;stroke:#fff;stroke-width:0.15;stroke-miterlimit:4;stroke-dasharray:none;stroke-opacity:1" d="M 13.40625 3 L 13.40625 3.5 L 4.5 3.5 L 3.5 3.5 L 3.5 4.5 L 3.5 13.40625 L 3 13.40625 L 3 13.5 L 3.5 13.5 L 3.5 21.5 L 3.5 65.5 L 3.5 73.5 L 3 73.5 L 3 73.59375 L 3.5 73.59375 L 3.5 83.5 L 13.40625 83.5 L 13.40625 84 L 13.5 84 L 13.5 83.5 L 113.5 83.5 L 113.5 84 L 113.59375 84 L 113.59375 83.5 L 123.5 83.5 L 123.5 73.59375 L 124 73.59375 L 124 73.5 L 123.5 73.5 L 123.5 13.5 L 124 13.5 L 124 13.40625 L 123.5 13.40625 L 123.5 3.5 L 113.59375 3.5 L 113.59375 3 L 113.5 3 L 113.5 3.5 L 13.5 3.5 L 13.5 3 L 13.40625 3 z M 3.59375 3.59375 L 4.40625 3.59375 C 4.3583099 4.0091201 4.00912 4.35831 3.59375 4.40625 L 3.59375 3.59375 z M 4.5 3.59375 L 63.4375 3.59375 L 63.4375 33.5 C 57.946201 33.533638 53.5 38.000834 53.5 43.5 C 53.5 48.999166 57.946203 53.466361 63.4375 53.5 L 63.4375 83.40625 C 43.918952 83.405601 23.845815 83.40623 4.5 83.40625 C 4.451398 82.937391 4.062613 82.5486 3.59375 82.5 L 3.59375 65.5 L 21.5 65.5 L 21.5 51.5 C 23.932927 49.675363 25.500001 46.772956 25.5 43.5 C 25.5 40.227043 23.932927 37.324636 21.5 35.5 L 21.5 34.5 L 21.5 21.5 L 3.59375 21.5 L 3.59375 4.5 C 4.0626101 4.4513998 4.4514 4.06261 4.5 3.59375 z M 63.5625 3.59375 L 122.5 3.59375 C 122.5486 4.0626101 122.93739 4.4514 123.40625 4.5 L 123.40625 21.5 L 105.5 21.5 L 105.5 34.5 L 105.5 35.5 C 103.06707 37.324636 101.5 40.227045 101.5 43.5 C 101.5 46.772955 103.06707 49.675364 105.5 51.5 L 105.5 52.5 L 105.5 65.5 L 123.40625 65.5 L 123.40625 82.5 C 122.93739 82.548603 122.5486 82.93739 122.5 83.40625 L 63.5625 83.40625 L 63.5625 53.5 C 69.053799 53.46636 73.500002 48.999167 73.5 43.5 C 73.5 38.000832 69.053799 33.53364 63.5625 33.5 L 63.5625 3.59375 z M 122.59375 3.59375 L 123.40625 3.59375 L 123.40625 4.40625 C 122.99089 4.3583101 122.64169 4.00912 122.59375 3.59375 z M 3.59375 21.59375 L 21.40625 21.59375 L 21.40625 34.5 L 21.40625 52.5 L 21.40625 65.40625 L 3.59375 65.40625 L 3.59375 53.5 L 9.5 53.5 L 9.5 33.5 L 3.59375 33.5 L 3.59375 21.59375 z M 105.59375 21.59375 L 123.40625 21.59375 L 123.40625 33.5 L 117.5 33.5 L 117.5 53.5 L 123.40625 53.5 L 123.40625 65.40625 L 105.59375 65.40625 L 105.59375 21.59375 z M 3.59375 33.59375 L 9.40625 33.59375 L 9.40625 53.40625 L 3.59375 53.40625 L 3.59375 33.59375 z M 63.4375 33.59375 L 63.4375 43.3125 C 63.356846 43.338278 63.312498 43.410831 63.3125 43.5 C 63.3125 43.589168 63.356847 43.661722 63.4375 43.6875 L 63.4375 53.40625 C 58.001947 53.371871 53.59375 48.943536 53.59375 43.5 C 53.593754 38.056463 58.001948 33.628128 63.4375 33.59375 z M 63.5625 33.59375 C 68.998054 33.62813 73.40625 38.056464 73.40625 43.5 C 73.406247 48.943535 68.998052 53.371872 63.5625 53.40625 L 63.5625 43.6875 C 63.643154 43.66172 63.687503 43.589169 63.6875 43.5 C 63.6875 43.41083 63.643153 43.338278 63.5625 43.3125 L 63.5625 33.59375 z M 117.59375 33.59375 L 123.40625 33.59375 L 123.40625 53.40625 L 117.59375 53.40625 L 117.59375 33.59375 z M 21.5 35.625 C 23.871233 37.436131 25.40625 40.290726 25.40625 43.5 C 25.406249 46.709273 23.871233 49.563868 21.5 51.375 L 21.5 35.625 z M 105.5 35.625 L 105.5 51.375 C 103.12877 49.563867 101.59375 46.709274 101.59375 43.5 C 101.59375 40.290725 103.12877 37.436132 105.5 35.625 z M 15.5 43.3125 C 15.3896 43.312499 15.312501 43.3896 15.3125 43.5 C 15.3125 43.610399 15.3896 43.687503 15.5 43.6875 C 15.6104 43.687499 15.687499 43.6104 15.6875 43.5 C 15.6875 43.389599 15.6104 43.312497 15.5 43.3125 z M 111.5 43.3125 C 111.3896 43.312499 111.3125 43.3896 111.3125 43.5 C 111.3125 43.610399 111.3896 43.687503 111.5 43.6875 C 111.6104 43.687499 111.6875 43.6104 111.6875 43.5 C 111.6875 43.389599 111.6104 43.312497 111.5 43.3125 z M 3.59375 82.59375 C 4.0091231 82.641687 4.358309 82.99088 4.40625 83.40625 C 4.1395859 83.406251 3.860126 83.40625 3.59375 83.40625 L 3.59375 82.59375 z M 123.40625 82.59375 L 123.40625 83.40625 L 122.59375 83.40625 C 122.64169 82.990881 122.99089 82.64169 123.40625 82.59375 z "/>
</svg>
